<svg width="136" height="40" viewBox="0 0 136 40" fill="none" xmlns="http://www.w3.org/2000/svg">
<g clip-path="url(#clip0_2204_1093)">
<path d="M13.3065 26.6124C19.7366 26.6124 24.9494 21.3996 24.9494 14.9695C24.9494 8.53925 19.7366 3.32654 13.3065 3.32654C6.87622 3.32654 1.66351 8.53925 1.66351 14.9695C1.66351 21.3996 6.87622 26.6124 13.3065 26.6124Z" fill="white" stroke="white" stroke-width="3.40972"/>
<path d="M19.9594 36.5923C26.3896 36.5923 31.6023 31.3796 31.6023 24.9493C31.6023 18.5192 26.3896 13.3064 19.9594 13.3064C13.5291 13.3064 8.31647 18.5192 8.31647 24.9493C8.31647 31.3796 13.5291 36.5923 19.9594 36.5923Z" stroke="white" stroke-width="3.40972"/>
<path d="M43.204 28.2001H46.9714V10.7358H43.204V28.2001Z" fill="white"/>
<path d="M48.6242 28.2002H52.1171V21.3143C52.1171 19.6926 53.1899 18.5199 54.7118 18.5199C56.1588 18.5199 57.1319 19.6177 57.1319 21.1396V28.2002H60.6248V20.3662C60.6248 17.4721 58.7785 15.4263 55.9344 15.4263C54.2128 15.4263 52.8157 16.1498 52.1171 17.3723V15.6259H48.6242V28.2002Z" fill="white"/>
<path d="M63.1536 11.9084V15.6259H60.7337V18.52H63.1536V23.6346C63.1536 26.5536 65.0248 28.2003 67.9189 28.2003H69.9898V25.2812H68.3929C67.2703 25.2812 66.6217 24.7074 66.6217 23.4848V18.52H69.9898V15.6259H66.6217V11.9084H63.1536Z" fill="white"/>
<path d="M78.804 23.934C78.5295 25.0068 77.6064 25.5556 76.2093 25.5556C74.4628 25.5556 73.3402 24.4579 73.0906 22.6865H82.1222C82.1472 22.412 82.1722 22.0378 82.1722 21.5637C82.1722 18.6946 80.4008 15.4263 75.9598 15.4263C71.6934 15.4263 69.7475 18.6946 69.7475 21.8881C69.7475 25.0566 71.943 28.3998 76.2093 28.3998C79.303 28.3998 81.6981 26.6534 82.1971 23.934H78.804ZM75.9598 17.971C77.6314 17.971 78.6044 19.0938 78.7042 20.491H73.1406C73.44 18.7445 74.388 17.971 75.9598 17.971Z" fill="white"/>
<path d="M90.8998 18.5199V15.6259H89.4776C87.9558 15.6259 87.0077 16.1498 86.334 17.7216V15.6259H82.8411V28.2002H86.334V22.0877C86.334 19.942 87.1075 18.5199 88.8289 18.5199H90.8998Z" fill="white"/>
<path d="M91.4662 28.2002H94.9342V10.162H91.4662V28.2002Z" fill="white"/>
<path d="M102.415 28.3998C106.282 28.3998 109.051 25.6554 109.051 21.9131C109.051 18.1707 106.282 15.4263 102.415 15.4263C98.5473 15.4263 95.7784 18.1707 95.7784 21.9131C95.7784 25.6554 98.5473 28.3998 102.415 28.3998ZM102.415 25.406C100.543 25.406 99.2712 23.9838 99.2712 21.9131C99.2712 19.8173 100.543 18.3952 102.415 18.3952C104.286 18.3952 105.558 19.8173 105.558 21.9131C105.558 23.9838 104.286 25.406 102.415 25.406Z" fill="white"/>
<path d="M115.539 28.3998C118.807 28.3998 121.402 26.3041 121.776 23.5098H118.233C117.983 24.6325 116.961 25.406 115.689 25.406C113.792 25.406 112.669 23.9589 112.669 21.9131C112.669 19.8672 113.767 18.3952 115.638 18.3952C116.911 18.3952 117.983 19.2186 118.183 20.3413H121.676C121.452 17.4222 118.832 15.4263 115.539 15.4263C111.647 15.4263 109.052 18.2455 109.052 21.9131C109.052 25.5806 111.647 28.3998 115.539 28.3998Z" fill="white"/>
<path d="M130.949 28.2002H135.141L129.727 20.5658L134.742 15.6259H130.35L125.984 19.9171V10.162H122.492V28.2002H125.984V24.2583L127.382 22.8861L130.949 28.2002Z" fill="white"/>
</g>
<defs>
<clipPath id="clip0_2204_1093">
<rect width="135.61" height="40" fill="white"/>
</clipPath>
</defs>
</svg>
